<?xml version="1.0" encoding="UTF-8"?>
<svg id="Warstwa_1" data-name="Warstwa 1" xmlns="http://www.w3.org/2000/svg" viewBox="0 0 444.95 444.95">
  <g>
    <path d="m292.13,129.76l33.23-33.77,16.65-16.85c5.55-5.61,11.11-11.22,16.72-16.78,5.6-5.57,11.16-11.18,16.79-16.71l16.88-16.62c5.63-5.54,11.33-11.01,16.99-16.51l8.5-8.25,2.13-2.06c.73-.67,1.36-1.44,2.29-1.9.92-.47,2.36-.43,4.33.14,1.08.39,1.8.4,3.54,1.44,1.66.96,4.05,2.66,7.48,5.38,2.73,3.42,4.42,5.82,5.38,7.48,1.04,1.74,1.06,2.45,1.44,3.54.57,1.97.62,3.41.14,4.33-.46.93-1.23,1.56-1.9,2.29l-2.06,2.13-8.25,8.5c-5.51,5.66-10.97,11.36-16.51,16.99l-16.62,16.88c-5.53,5.63-11.14,11.19-16.71,16.79-5.57,5.6-11.17,11.16-16.78,16.72l-16.85,16.65-33.77,33.23-23.06-23.06Z"/>
    <polygon points="376.58 181.2 222.48 222.48 263.76 68.38 376.58 181.2"/>
  </g>
  <g>
    <path d="m152.82,315.19l-33.23,33.77-16.65,16.85c-5.55,5.61-11.11,11.22-16.72,16.78-5.6,5.57-11.16,11.18-16.79,16.71l-16.88,16.62c-5.63,5.54-11.33,11.01-16.99,16.51l-8.5,8.25-2.13,2.06c-.73.67-1.36,1.44-2.29,1.9-.92.47-2.36.43-4.33-.14-1.08-.39-1.8-.4-3.54-1.44-1.66-.96-4.05-2.66-7.48-5.38-2.73-3.42-4.42-5.82-5.38-7.48-1.04-1.74-1.06-2.45-1.44-3.54-.57-1.97-.62-3.41-.14-4.33.46-.93,1.23-1.56,1.9-2.29l2.06-2.13,8.25-8.5c5.51-5.66,10.97-11.36,16.51-16.99l16.62-16.88c5.53-5.63,11.14-11.19,16.71-16.79,5.57-5.6,11.17-11.16,16.78-16.72l16.85-16.65,33.77-33.23,23.06,23.06Z"/>
    <polygon points="68.37 263.75 222.48 222.48 181.19 376.57 68.37 263.75"/>
  </g>
</svg>